<?xml version="1.0" standalone="no"?>
<!DOCTYPE svg PUBLIC "-//W3C//DTD SVG 20010904//EN"
 "http://www.w3.org/TR/2001/REC-SVG-20010904/DTD/svg10.dtd">
<svg version="1.0" xmlns="http://www.w3.org/2000/svg"
 width="700.000000pt" height="700.000000pt" viewBox="0 0 700.000000 700.000000"
 preserveAspectRatio="xMidYMid meet">
<metadata>
Created by potrace 1.14, written by Peter Selinger 2001-2017
</metadata>
<g transform="translate(0.000000,700.000000) scale(0.100000,-0.100000)"
fill="#000000" stroke="none">
<path d="M2813 6794 c-18 -9 -33 -20 -33 -24 0 -17 -51 -20 -80 -5 -63 32
-119 18 -180 -44 -360 -370 -788 -1019 -1080 -1636 -177 -373 -328 -781 -434
-1170 -25 -92 -39 -153 -36 -157 1 -2 -3 -15 -9 -31 -6 -15 -13 -38 -15 -50
-2 -12 -16 -80 -31 -152 -15 -71 -29 -143 -32 -160 -2 -16 -10 -68 -18 -115
-8 -47 -17 -105 -20 -130 -3 -25 -7 -62 -10 -82 -13 -97 -17 -137 -30 -308
-12 -151 -15 -346 -5 -375 15 -45 58 -82 102 -88 38 -5 37 -5 263 93 249 108
695 256 894 296 12 3 53 12 90 20 36 9 75 17 86 19 11 2 72 13 135 24 63 11
140 23 170 26 30 4 60 8 67 10 29 9 232 19 393 19 235 1 313 -7 545 -50 17 -3
33 -8 36 -12 7 -9 32 -112 28 -117 -2 -1 -42 -6 -89 -9 -135 -11 -201 -19
-305 -40 -130 -26 -251 -75 -309 -127 -66 -58 -76 -91 -76 -272 0 -172 5 -196
58 -253 15 -16 27 -35 27 -41 0 -6 -32 -45 -71 -85 -39 -40 -84 -93 -100 -118
-16 -25 -31 -47 -35 -50 -3 -3 -22 -39 -42 -81 -93 -194 -114 -414 -63 -644 9
-43 40 -123 69 -180 113 -226 308 -395 547 -474 128 -42 203 -49 539 -46 284
2 324 5 399 24 340 87 591 330 687 666 25 87 29 117 29 230 0 148 -5 194 -35
290 -45 146 -121 274 -229 384 -73 74 -81 90 -54 112 9 8 28 32 42 54 25 38
26 46 26 200 0 182 -7 213 -61 269 -63 65 -223 130 -373 152 -30 4 -57 8 -60
9 -3 1 -41 5 -85 9 -44 4 -89 9 -100 11 -11 2 -61 4 -111 4 l-91 1 -23 108
c-13 59 -24 120 -26 135 -1 16 -5 43 -8 61 -6 29 -2 34 57 73 82 55 182 104
418 203 107 45 208 87 224 95 17 7 46 20 65 28 424 177 732 344 938 510 120
96 275 284 322 391 40 89 31 134 -64 331 -202 415 -673 929 -1278 1394 -59 45
-129 98 -155 116 -62 44 -452 306 -484 324 -13 8 -64 39 -113 68 -49 30 -143
85 -210 122 -328 184 -484 261 -527 261 -19 0 -49 -8 -66 -16z m-37 -440 c14
-65 32 -146 39 -179 8 -33 23 -103 35 -155 12 -52 23 -102 25 -110 2 -8 13
-58 24 -110 25 -114 50 -228 57 -255 2 -11 9 -40 14 -65 5 -25 15 -74 24 -110
8 -36 29 -128 46 -205 17 -77 35 -158 40 -180 5 -22 18 -83 30 -135 11 -52 27
-124 36 -160 8 -36 17 -76 19 -89 4 -24 78 -350 116 -516 11 -49 32 -142 45
-205 14 -63 27 -122 29 -130 2 -8 11 -49 20 -90 9 -41 22 -102 30 -135 8 -33
17 -74 20 -92 3 -17 12 -58 20 -90 8 -32 17 -73 20 -92 3 -19 8 -38 11 -43 3
-4 3 -8 0 -8 -5 0 -129 203 -164 270 -145 275 -180 353 -297 655 -34 88 -119
356 -140 441 -17 67 -76 323 -80 344 -18 102 -45 275 -50 325 -4 33 -8 74 -10
90 -18 144 -25 291 -26 530 -1 232 8 411 27 550 1 11 3 33 3 49 2 48 10 26 37
-100z m172 -31 c94 -160 226 -412 307 -588 85 -183 217 -531 255 -670 5 -16
18 -64 29 -105 28 -101 69 -284 86 -385 3 -16 7 -39 9 -50 2 -11 7 -45 10 -75
4 -30 9 -71 11 -90 17 -135 22 -430 10 -560 -9 -107 -30 -255 -40 -290 -3 -8
-7 -31 -10 -50 -3 -19 -12 -57 -19 -85 -16 -60 -6 -91 -87 275 -33 151 -62
282 -64 290 -2 8 -20 89 -40 180 -20 91 -38 172 -40 180 -2 8 -28 130 -59 270
-31 140 -63 282 -71 315 -13 56 -51 224 -60 270 -3 11 -32 144 -66 295 -33
151 -62 282 -64 290 -2 8 -9 38 -15 65 -6 28 -14 61 -16 75 -14 70 -94 430
-111 493 -8 32 4 17 45 -50z"/>
</g>
</svg>
